# xmcd CD database file
#
# Track frame offsets:
#	182
#	27555
#	49875
#	67242
#	90320
#	108170
#	138750
#	161685
#
# Disc length: 2386 seconds
#
# Revision: 3
# Processed by: cddbd v1.5.1PL2 Copyright (c) Steve Scherf et al.
# Submitted via: CDex 1.51
#
DISCID=67095008
DTITLE=The Marshall Tucker Band - Greatest Hits
DYEAR=1978
DGENRE=Southern Rock
TTITLE0=Can't You See
TTITLE1=Heard it in a Love Song
TTITLE2=Searchin' for a Rainbow
TTITLE3=Ramblin'
TTITLE4=Fire on the Mountain
TTITLE5=This Ol' Cowboy
TTITLE6=24 Hours at a Time
TTITLE7=Long Hard Ride
EXTD=YEAR: 1978
EXTT0=
EXTT1=
EXTT2=
EXTT3=
EXTT4=
EXTT5=
EXTT6=
EXTT7=
PLAYORDER=
